HIERARCHY
ROOT Hips
{
  OFFSET 40.5536 90.4282 -43.4263
  CHANNELS 6 Xposition Yposition Zposition Zrotation Xrotation Yrotation
  JOINT RightUpLeg
  {
    OFFSET -8.9458 -8.66707 0.101652
    CHANNELS 3 Zrotation Xrotation Yrotation
    JOINT RightLeg
    {
      OFFSET 0 -44.4227 1.3727
      CHANNELS 3 Zrotation Xrotation Yrotation
      JOINT RightFoot
      {
        OFFSET 0.253549 -42.0924 -1.46059
        CHANNELS 3 Zrotation Xrotation Yrotation
        JOINT RightToes
        {
          OFFSET 0.04 -4.41509 8.4991
          CHANNELS 3 Zrotation Xrotation Yrotation
          End Site
          {
            OFFSET -0.08 -0.137448 9.77979
          }
        }
      }
    }
  }
  JOINT Spine
  {
    OFFSET 0 11.8905 0
    CHANNELS 3 Zrotation Xrotation Yrotation
    JOINT Spine1
    {
      OFFSET 0 25.6574 0.127663
      CHANNELS 3 Zrotation Xrotation Yrotation
      JOINT HEad
      {
        OFFSET 0 8.73416 0.011341
        CHANNELS 3 Zrotation Xrotation Yrotation
        End Site
        {
          OFFSET -0.29 12.7742 2.51395
        }
      }
      JOINT LeftShoulder1
      {
        OFFSET 8.99 -0.362252 -0.22
        CHANNELS 3 Zrotation Xrotation Yrotation
        JOINT LeftArm
        {
          OFFSET 10.2827 -0.00338 0.322123
          CHANNELS 3 Zrotation Xrotation Yrotation
          JOINT LeftForeArm
          {
            OFFSET 32.7669 0.099144 -1.42434
            CHANNELS 3 Zrotation Xrotation Yrotation
            JOINT LeftHand
            {
              OFFSET 27.5643 0.085362 1.02216
              CHANNELS 3 Zrotation Xrotation Yrotation
              End Site
              {
                OFFSET 16.7443 -0.6 1.50291
              }
            }
          }
        }
      }
      JOINT RightShoulder
      {
        OFFSET -8.99 -0.362252 -0.22
        CHANNELS 3 Zrotation Xrotation Yrotation
        JOINT RightArm
        {
          OFFSET -10.2827 -0.00338 0.322123
          CHANNELS 3 Zrotation Xrotation Yrotation
          JOINT RightForeArm
          {
            OFFSET -32.8971 0.099144 -1.42434
            CHANNELS 3 Zrotation Xrotation Yrotation
            JOINT RightHand
            {
              OFFSET -27.4921 0.085362 1.02216
              CHANNELS 3 Zrotation Xrotation Yrotation
              End Site
              {
                OFFSET -16.6312 -0.6 1.50291
              }
            }
          }
        }
      }
    }
  }
  JOINT LeftUpLeg
  {
    OFFSET 8.9458 -8.66707 0.101652
    CHANNELS 3 Zrotation Xrotation Yrotation
    JOINT LeftLeg
    {
      OFFSET 0 -44.4227 1.3727
      CHANNELS 3 Zrotation Xrotation Yrotation
      JOINT LeftFoot
      {
        OFFSET -0.253549 -42.0924 -1.46059
        CHANNELS 3 Zrotation Xrotation Yrotation
        JOINT LeftToes
        {
          OFFSET -0.04 -4.41509 8.4991
          CHANNELS 3 Zrotation Xrotation Yrotation
          End Site
          {
            OFFSET 0.08 -0.047448 9.77979
          }
        }
      }
    }
  }
}
MOTION
Frames:	14
Frame Time:	0.0166667
36.1863 90.0794 -46.9525 4.57475 -0.451967 95.2949 -26.5584 -34.5192 13.3453 12.6993 57.7193 -7.17402 18.7832 20.5527 -4.90834 0.0462048 0.000533403 0.662642 2.4466 7.70935 -1.20511 -2.43563 14.8888 -1.43218 9.78873 -3.26489 -21.566 -1.32762e-032 -9.56651e-016 -7.95139e-016 -82.7543 -23.3464 -45.3296 -49.4597 64.8245 -85.1902 7.21046 19.4659 -2.26649 30.7205 -9.17113 -30.1682 45.5443 -55.7552 19.936 3.79196 59.6858 97.0848 -25.1608 17.9765 4.67599 25.5782 -7.00746 -13.7822 -11.955 35.5463 4.77678 -7.42394 15.9284 1.38213 -1.32381e-009 1.55872e-007 -4.84707e-009 
37.176 89.9484 -46.3356 4.77099 -1.08982 96.0003 -27.4137 -35.1784 13.0238 16.3541 59.2039 -10.0538 18.247 19.1669 -4.62044 0.0462048 0.000533403 0.662642 2.53978 7.35177 -1.17545 -2.41519 14.158 -1.36749 10.1977 -1.40474 -22.235 3.97569e-016 -1.39149e-015 -0 -82.6173 -23.1519 -46.1941 -48.6264 64.9454 -86.557 7.21046 19.4659 -2.26649 30.5055 -9.18509 -30.3855 43.4052 -62.8534 18.2185 3.20784 60.3659 99.6082 -25.0338 18.2228 2.81329 26.8379 -7.26546 -14.8583 -12.8115 36.1702 5.16399 -7.3586 16.6376 1.4507 -1.32381e-009 1.55872e-007 -4.84707e-009 
38.1553 89.9895 -45.6335 4.91594 -1.82047 97.0347 -28.3952 -35.2038 12.6498 19.9737 59.6096 -14.3195 16.7085 17.4229 -4.04501 0.0462048 0.000533403 0.662642 2.74681 6.94011 -1.15812 -2.16069 13.3397 -1.36085 10.6829 0.453029 -22.9521 2.06902e-033 1.49089e-016 -7.95139e-016 -82.1004 -22.5936 -46.1801 -47.5499 64.9459 -87.9971 7.21046 19.4659 -2.26649 30.1077 -9.01499 -30.2087 38.3235 -71.5481 11.9946 1.51021 60.9511 105.1 -24.5109 18.3267 0.462459 28.3169 -8.37934 -15.7918 -13.755 37.1727 5.43716 -8.07857 18.9535 1.8295 -1.32382e-009 1.55872e-007 -4.84707e-009 
39.0632 90.1435 -44.8942 5.08471 -2.56548 98.3397 -29.4685 -34.5539 12.4094 23.0618 58.9302 -19.2555 14.6015 15.1593 -3.29342 0.0462048 0.000533403 0.662642 3.01564 6.53502 -1.13955 -1.74554 12.5612 -1.38349 11.2568 2.10989 -23.776 7.95139e-016 -2.83268e-015 -7.95139e-016 -81.34 -21.7704 -45.5147 -46.3792 64.8362 -89.3538 7.21046 19.4659 -2.26649 29.5124 -8.63709 -29.5582 21.9863 -80.681 -6.78893 -0.668809 61.2207 112.183 -23.7325 18.2245 -1.90318 29.9184 -10.3657 -16.3716 -14.7542 38.6222 5.58052 -9.83506 22.9543 2.67688 -1.32381e-009 1.55872e-007 -4.84707e-009 
39.8633 90.321 -44.1564 5.34199 -3.21765 99.7881 -30.5728 -33.2782 12.4524 25.1419 57.3254 -23.9577 12.5017 12.2479 -2.5004 0.0462048 0.000533403 0.662642 3.25841 6.19151 -1.10359 -1.27993 11.934 -1.39669 11.9194 3.44771 -24.7509 1.24141e-032 -8.94531e-016 7.95139e-016 -80.4756 -20.8283 -44.457 -45.2651 64.6377 -90.4748 7.21046 19.4659 -2.26649 28.7143 -8.0463 -28.3787 -57.7062 -84.6555 -89.9241 -2.77581 61.0437 119.599 -22.8096 17.9009 -3.96082 31.4921 -13.0992 -16.3791 -15.7288 40.5602 5.60905 -12.8142 28.2535 4.2037 -1.32381e-009 1.55872e-007 -4.84707e-009 
40.5536 90.4282 -43.4263 5.71765 -3.65995 101.197 -31.6544 -31.5151 12.8125 25.9298 55.0586 -27.6801 10.9732 8.82039 -1.78959 0.0462048 0.000533403 0.662642 3.35116 5.94884 -1.02884 -0.894824 11.5322 -1.34918 12.6748 4.43994 -25.9032 1.93108e-032 6.95746e-016 -1.59028e-015 -79.5994 -19.918 -43.2359 -44.3262 64.374 -91.2417 7.21046 19.4659 -2.26649 27.7246 -7.26136 -26.6498 -100.071 -77.8595 -136.287 -4.47723 60.3866 126.357 -21.8763 17.3786 -5.50752 32.8731 -16.362 -15.6501 -16.6151 43.0173 5.60476 -16.9622 33.9868 6.54346 -1.32381e-009 1.55872e-007 -4.84707e-009 
41.1559 90.388 -42.6738 6.20446 -3.80118 102.366 -32.688 -29.4855 13.3781 25.4195 52.4202 -30.0567 10.3472 5.35296 -1.22499 0.0462048 0.000533403 0.662642 3.18169 5.83032 -0.892064 -0.716616 11.3906 -1.18374 13.5457 5.12168 -27.2372 8.27607e-033 2.98177e-016 -1.59028e-015 -78.7274 -19.1466 -42.018 -43.6202 64.0562 -91.5934 7.21046 19.4659 -2.26649 26.579 -6.32722 -24.4 -106.977 -70.8216 -147.103 -5.64905 59.2713 131.723 -21.182 16.6863 -6.31269 33.9334 -19.9105 -14.1435 -17.4318 45.9552 5.72952 -21.8013 39.1316 9.52739 -1.32381e-009 1.55872e-007 -4.84707e-009 
41.6946 90.1356 -41.8592 6.77956 -3.61335 103.119 -33.6652 -27.4872 13.9267 23.8763 49.7045 -31.0974 10.564 2.5401 -0.817423 0.0462048 0.000533403 0.662642 2.73794 5.84885 -0.677834 -0.834844 11.5191 -0.852714 14.5688 5.53916 -28.7259 7.95139e-016 -1.39149e-015 -0 -77.7973 -18.5468 -40.9013 -43.1231 63.6684 -91.5405 7.21046 19.4659 -2.26649 25.3447 -5.31507 -21.7302 -102.37 -67.0848 -144.769 -5.92208 54.9259 134.305 -20.8537 15.8627 -6.19964 34.6277 -23.4893 -11.9801 -18.2707 49.154 6.16792 -26.4928 42.9789 12.607 -1.32381e-009 1.55872e-007 -4.84707e-009 
42.1867 89.6178 -40.9642 7.43175 -3.14488 103.349 -34.5487 -25.8633 14.205 21.7261 47.2426 -30.9836 11.1939 1.04114 -0.579451 0.0462048 0.000533403 0.662642 2.1492 6.00994 -0.387537 -1.27921 11.9174 -0.335968 15.7673 5.70966 -30.3001 0 2.18663e-015 -0 -76.6874 -18.0762 -39.9199 -42.7343 63.1633 -91.1619 7.21046 19.4659 -2.26649 24.1204 -4.31719 -18.8434 -87.5123 -65.6401 -129.21 -5.53593 45.9434 133.802 -20.9927 14.9003 -4.81759 34.9943 -26.8013 -9.42856 -19.2158 52.2021 7.00018 -30.2326 45.3073 15.1139 -1.32381e-009 1.55872e-007 -4.84707e-009 
42.6488 88.8124 -39.9895 8.16546 -2.50381 103.011 -35.2337 -24.9297 14.0121 19.3698 45.3929 -29.8391 11.6477 1.29487 -0.546341 0.0462048 0.000533403 0.662642 1.62034 6.31194 -0.042188 -2.01925 12.5787 0.347002 17.1119 5.61605 -31.8421 -7.95139e-016 1.98785e-015 -1.59028e-015 -75.2574 -17.652 -39.0454 -42.3149 62.4752 -90.5666 7.21046 19.4659 -2.26649 23.0268 -3.43416 -16.0518 -71.8851 -62.0987 -110.924 -5.08144 36.5218 131.973 -21.8551 13.7407 -1.76925 35.1031 -29.512 -6.86176 -20.2325 54.6512 8.07422 -32.6344 46.1956 16.6187 -1.32381e-009 1.55872e-007 -4.84707e-009 
43.1067 87.7511 -38.9322 8.97753 -1.82545 102.103 -35.5815 -24.8721 13.2604 17.048 44.3975 -27.6949 11.4899 3.50798 -0.731629 0.0462048 0.000533403 0.662642 1.30122 6.74678 0.321752 -2.98136 13.4826 1.13739 18.4963 5.23709 -33.1899 -9.93129e-032 3.57812e-015 1.59028e-015 -73.3991 -17.2049 -38.1841 -41.7579 61.5461 -89.8376 7.21046 19.4659 -2.26649 22.1832 -2.75531 -13.7337 -62.4936 -57.0768 -98.3564 -4.34627 29.5657 130.245 -23.2518 12.4461 2.45383 34.9985 -31.3203 -4.70168 -21.1015 56.2083 9.0179 -33.7599 45.8617 17.064 -1.32381e-009 1.55872e-007 -4.84707e-009 
43.5938 86.5202 -37.7761 9.82958 -1.24022 100.635 -35.5161 -25.6578 12.0033 14.8505 44.1917 -24.6892 10.6983 7.68651 -1.08395 0.0462048 0.000533403 0.662642 1.19037 7.29907 0.661393 -4.06994 14.5839 1.95053 19.747 4.58971 -34.1549 1.59028e-015 -1.19271e-015 -0 -71.0821 -16.7263 -37.1725 -41.0463 60.3507 -88.9807 7.21046 19.4659 -2.26649 21.6795 -2.34176 -12.237 -60.0563 -53.949 -93.7906 -2.91911 27.9167 129.865 -24.8471 11.2744 6.60626 34.6926 -32.0472 -3.3437 -21.5122 56.8282 9.49175 -33.8626 44.6827 16.6659 -1.32381e-009 1.55872e-007 -4.84707e-009 
44.1398 85.2444 -36.5138 10.6432 -0.856058 98.5932 -35.0785 -27.0548 10.4179 12.8178 44.4112 -21.2467 9.69331 13.513 -1.51893 0.0462048 0.000533403 0.662642 1.15289 7.9406 0.938206 -5.18143 15.8066 2.69606 20.6686 3.75139 -34.5487 0 2.38542e-015 -0 -68.3817 -16.2837 -35.7895 -40.2606 58.9076 -87.9206 7.21046 19.4659 -2.26649 21.5522 -2.21763 -11.7662 -63.9463 -54.8294 -97.6674 -0.737183 33.2217 131.51 -26.3907 10.5525 9.38018 34.2046 -31.6762 -3.05963 -21.2983 56.688 9.50843 -33.1103 43.1814 15.7176 -1.32382e-009 1.55872e-007 -4.84707e-009 
44.7623 84.0649 -35.1808 11.3208 -0.759503 95.9209 -34.3588 -28.7936 8.74207 11.0099 44.652 -17.8983 9.04621 20.1983 -2.00804 0.0462048 0.000533403 0.662642 1.03915 8.62485 1.1264 -6.2135 17.0496 3.29517 21.1043 2.84525 -34.1988 1.59028e-015 -2.98177e-015 -4.77083e-015 -65.4763 -16.0029 -33.7984 -39.5332 57.2747 -86.545 7.21046 19.4659 -2.26649 21.7653 -2.3671 -12.3082 -77.1118 -58.5097 -113.229 1.83615 45.6435 135.065 -27.7037 10.4491 10.2484 33.5888 -30.3129 -3.92829 -20.5752 56.0921 9.48064 -31.4961 41.8358 14.4304 -1.32381e-009 1.55872e-007 -4.84707e-009 
